<?xml version="1.0" encoding="utf-8"?>
<!-- Generator: Adobe Illustrator 27.0.0, SVG Export Plug-In . SVG Version: 6.00 Build 0)  -->
<svg version="1.1" id="Layer_1" xmlns="http://www.w3.org/2000/svg" xmlns:xlink="http://www.w3.org/1999/xlink" x="0px" y="0px"
	 viewBox="0 0 150 40" style="enable-background:new 0 0 150 40;" xml:space="preserve">
<style type="text/css">
	.st0{fill:#792DE7;}
	.st1{fill:url(#SVGID_1_);}
	.st2{fill:url(#SVGID_00000016788304791052737400000001267624882879405489_);}
	.st3{fill:url(#SVGID_00000024697522289588194030000000614584229208181408_);}
	.st4{fill:url(#SVGID_00000178177925202400324940000007916754606035818902_);}
	.st5{fill:#F5DC3A;}
	.st6{fill:#FFFFFF;}
</style>
<image style="display:none;overflow:visible;" width="240" height="240" xlink:href="12B375AF.jpg"  transform="matrix(0.6267 0.1447 -0.1447 0.6267 -16.988 -28.7903)">
</image>
<g>
	<g>
		<path d="M38.437,25.262l1.159-1.783c1.034,0.748,2.121,1.141,3.012,1.141c0.784,0,1.141-0.285,1.141-0.713v-0.035
			c0-0.588-0.927-0.784-1.978-1.105c-1.337-0.392-2.852-1.016-2.852-2.869v-0.036c0-1.943,1.569-3.03,3.493-3.03
			c1.212,0,2.531,0.41,3.565,1.105l-1.034,1.871c-0.945-0.552-1.889-0.891-2.584-0.891c-0.66,0-0.998,0.285-0.998,0.659v0.036
			c0,0.535,0.909,0.784,1.943,1.141c1.337,0.446,2.887,1.087,2.887,2.834v0.036c0,2.121-1.586,3.083-3.654,3.083
			C41.199,26.706,39.702,26.26,38.437,25.262z"/>
		<path d="M47.151,13.517h2.709v4.812c0.624-0.802,1.426-1.533,2.798-1.533c2.05,0,3.244,1.354,3.244,3.547v6.185h-2.709v-5.329
			c0-1.283-0.606-1.943-1.64-1.943c-1.034,0-1.693,0.659-1.693,1.943v5.329h-2.709V13.517z"/>
		<path d="M56.766,21.805v-0.036c0-2.745,2.21-4.973,5.187-4.973c2.958,0,5.151,2.192,5.151,4.937v0.036
			c0,2.745-2.21,4.973-5.186,4.973C58.959,26.742,56.766,24.549,56.766,21.805z M64.43,21.805v-0.036
			c0-1.408-1.016-2.638-2.513-2.638c-1.551,0-2.477,1.194-2.477,2.602v0.036c0,1.408,1.016,2.638,2.513,2.638
			C63.504,24.406,64.43,23.212,64.43,21.805z"/>
		<path d="M68.046,16.974h2.709v1.372c0.659-0.891,1.569-1.551,2.976-1.551c2.228,0,4.349,1.747,4.349,4.937v0.036
			c0,3.191-2.086,4.937-4.349,4.937c-1.444,0-2.335-0.659-2.976-1.426v4.099h-2.709V16.974z M75.372,21.769v-0.036
			c0-1.586-1.07-2.638-2.335-2.638s-2.317,1.051-2.317,2.638v0.036c0,1.586,1.052,2.638,2.317,2.638S75.372,23.373,75.372,21.769z"
			/>
		<path class="st0" d="M78.799,20.325v-0.036c0-3.547,2.674-6.452,6.505-6.452c2.353,0,3.761,0.784,4.92,1.925l-1.747,2.014
			c-0.962-0.873-1.943-1.408-3.19-1.408c-2.103,0-3.618,1.747-3.618,3.885v0.036c0,2.139,1.479,3.921,3.618,3.921
			c1.426,0,2.299-0.57,3.279-1.462l1.746,1.764c-1.283,1.372-2.709,2.228-5.115,2.228C81.526,26.742,78.799,23.907,78.799,20.325z"
			/>
		<path class="st0" d="M91.375,14.051h2.745v12.476h-2.745V14.051z"/>
		<path class="st0" d="M96.218,14.051h5.703c1.586,0,2.816,0.446,3.636,1.265c0.695,0.695,1.069,1.675,1.069,2.852v0.036
			c0,2.014-1.087,3.279-2.674,3.867l3.048,4.456h-3.208l-2.674-3.993h-2.157v3.993h-2.745V14.051z M101.744,20.111
			c1.337,0,2.103-0.713,2.103-1.764v-0.036c0-1.176-0.82-1.782-2.157-1.782h-2.727v3.582H101.744z"/>
		<path class="st0" d="M107.37,20.325v-0.036c0-3.547,2.674-6.452,6.505-6.452c2.353,0,3.761,0.784,4.92,1.925l-1.747,2.014
			c-0.962-0.873-1.943-1.408-3.19-1.408c-2.103,0-3.618,1.747-3.618,3.885v0.036c0,2.139,1.479,3.921,3.618,3.921
			c1.426,0,2.299-0.57,3.279-1.462l1.746,1.764c-1.283,1.372-2.709,2.228-5.115,2.228C110.097,26.742,107.37,23.907,107.37,20.325z"
			/>
		<path class="st0" d="M119.65,21.181v-7.129h2.745v7.058c0,2.032,1.016,3.083,2.692,3.083c1.675,0,2.691-1.016,2.691-2.994v-7.147
			h2.745v7.04c0,3.779-2.121,5.632-5.472,5.632C121.7,26.724,119.65,24.852,119.65,21.181z"/>
		<path class="st0" d="M132.527,14.051h2.745v12.476h-2.745V14.051z"/>
		<path class="st0" d="M139.966,16.582h-3.797v-2.531h10.338v2.531h-3.796v9.946h-2.744V16.582z"/>
	</g>
	<g>
		<g>
			<linearGradient id="SVGID_1_" gradientUnits="userSpaceOnUse" x1="15.4621" y1="17.2391" x2="33.4384" y2="17.2391">
				<stop  offset="0" style="stop-color:#732DF0"/>
				<stop  offset="1" style="stop-color:#4370FF"/>
			</linearGradient>
			<path class="st1" d="M33.231,21.809l-15.97,4.006l-6.682-11.539l22.174-5.562c1.07-0.268,2.099,0.562,2.062,1.665l-0.33,9.877
				C34.461,20.995,33.949,21.629,33.231,21.809z"/>
		</g>
		<g>
			
				<linearGradient id="SVGID_00000067238335858652205340000009657983769040986525_" gradientUnits="userSpaceOnUse" x1="15.4621" y1="21.3752" x2="33.4384" y2="21.3752">
				<stop  offset="0" style="stop-color:#732DF0"/>
				<stop  offset="1" style="stop-color:#4370FF"/>
			</linearGradient>
			<path style="fill:url(#SVGID_00000067238335858652205340000009657983769040986525_);" d="M21.807,34.305
				c-0.494,0-0.943-0.334-1.068-0.834l-0.394-1.57c-0.328-1.31,0.47-2.643,1.78-2.971l10.308-2.585
				c0.166-0.042,0.255-0.154,0.293-0.217c0.038-0.063,0.095-0.194,0.053-0.36c-0.042-0.166-0.154-0.255-0.217-0.293
				c-0.063-0.037-0.193-0.095-0.36-0.053l-12.619,3.165c-1.04,0.262-2.144-0.205-2.682-1.133l-8.5-14.678
				c-0.142-0.245-0.353-0.437-0.61-0.554l-3.651-1.668c-0.554-0.253-0.798-0.907-0.544-1.46C3.846,8.537,4.5,8.292,5.054,8.546
				l3.652,1.668c0.676,0.309,1.23,0.812,1.602,1.454l8.5,14.678c0.047,0.083,0.146,0.122,0.237,0.101l12.62-3.166
				c0.695-0.173,1.415-0.067,2.029,0.301c0.614,0.368,1.048,0.953,1.222,1.647c0.174,0.694,0.068,1.415-0.3,2.029
				c-0.368,0.614-0.953,1.048-1.647,1.222l-10.307,2.585c-0.131,0.033-0.211,0.166-0.178,0.298l0.394,1.57
				c0.148,0.59-0.21,1.189-0.801,1.337C21.986,34.294,21.896,34.305,21.807,34.305z"/>
		</g>
		<g>
			
				<linearGradient id="SVGID_00000183968030850329524280000010236457229332586681_" gradientUnits="userSpaceOnUse" x1="15.4621" y1="30.8005" x2="33.4384" y2="30.8005">
				<stop  offset="0" style="stop-color:#732DF0"/>
				<stop  offset="1" style="stop-color:#4370FF"/>
			</linearGradient>
			<circle style="fill:url(#SVGID_00000183968030850329524280000010236457229332586681_);" cx="31.55" cy="30.8" r="2.381"/>
		</g>
		<g>
			
				<linearGradient id="SVGID_00000133512798191436411980000003314585252558170496_" gradientUnits="userSpaceOnUse" x1="15.4621" y1="33.1728" x2="33.4384" y2="33.1728">
				<stop  offset="0" style="stop-color:#732DF0"/>
				<stop  offset="1" style="stop-color:#4370FF"/>
			</linearGradient>
			<circle style="fill:url(#SVGID_00000133512798191436411980000003314585252558170496_);" cx="22.092" cy="33.173" r="2.381"/>
		</g>
	</g>
	<g>
		<line class="st5" x1="22.37" y1="14.354" x2="22.041" y2="13.041"/>
	</g>
	<g>
		<line class="st5" x1="20.931" y1="15.747" x2="19.63" y2="15.376"/>
	</g>
	<g>
		<line class="st5" x1="21.419" y1="17.69" x2="20.446" y2="18.631"/>
	</g>
	<g>
		<line class="st5" x1="24.296" y1="14.903" x2="25.268" y2="13.961"/>
	</g>
	<g>
		<g>
			<path class="st6" d="M25.387,21.908l-2.622-5.733c-0.073-0.159,0.076-0.329,0.244-0.278l6.084,1.857L27.21,18.77l1.742,1.523
				c0.14,0.122,0.153,0.335,0.029,0.474l-0.604,0.674c-0.121,0.135-0.328,0.149-0.466,0.03l-1.727-1.482L25.387,21.908z"/>
		</g>
		<g>
			<path class="st6" d="M22.918,14.873c-0.229,0.058-0.462-0.082-0.519-0.311l-0.347-1.383c-0.058-0.229,0.082-0.462,0.311-0.519
				c0.229-0.058,0.462,0.082,0.519,0.311l0.347,1.383C23.287,14.583,23.148,14.815,22.918,14.873z"/>
		</g>
		<g>
			<path class="st6" d="M21.402,16.341c-0.071,0.018-0.146,0.018-0.221-0.004l-1.371-0.391c-0.227-0.065-0.359-0.301-0.294-0.529
				c0.065-0.228,0.301-0.36,0.529-0.294l1.371,0.391c0.227,0.065,0.359,0.301,0.294,0.529
				C21.666,16.196,21.546,16.305,21.402,16.341z"/>
		</g>
		<g>
			<path class="st6" d="M20.892,19.379c-0.143,0.036-0.301-0.003-0.412-0.117c-0.164-0.17-0.16-0.441,0.01-0.605l1.024-0.992
				c0.169-0.165,0.44-0.16,0.605,0.01c0.164,0.17,0.16,0.441-0.01,0.605l-1.024,0.992C21.029,19.326,20.962,19.362,20.892,19.379z"
				/>
		</g>
		<g>
			<path class="st6" d="M24.948,15.452c-0.143,0.036-0.301-0.003-0.412-0.117c-0.164-0.17-0.16-0.441,0.01-0.605l1.024-0.992
				c0.169-0.165,0.44-0.16,0.605,0.01c0.164,0.17,0.16,0.441-0.01,0.605l-1.024,0.992C25.085,15.398,25.018,15.434,24.948,15.452z"
				/>
		</g>
	</g>
</g>
</svg>
