<?xml version="1.0" encoding="utf-8"?>
<!-- Generator: Adobe Illustrator 27.0.0, SVG Export Plug-In . SVG Version: 6.00 Build 0)  -->
<svg version="1.1" id="Layer_1" xmlns="http://www.w3.org/2000/svg" xmlns:xlink="http://www.w3.org/1999/xlink" x="0px" y="0px"
	 viewBox="0 0 150 40" style="enable-background:new 0 0 150 40;" xml:space="preserve">
<style type="text/css">
	.st0{fill:#FFFFFF;}
	.st1{fill:#F5DC3A;}
</style>
<image style="display:none;overflow:visible;" width="240" height="240" xlink:href="515A0570.jpg"  transform="matrix(0.6267 0.1447 -0.1447 0.6267 -16.988 -28.7903)">
</image>
<g>
	<path class="st0" d="M38.437,25.262l1.159-1.783c1.034,0.748,2.121,1.141,3.012,1.141c0.784,0,1.141-0.285,1.141-0.713v-0.035
		c0-0.588-0.927-0.784-1.978-1.105c-1.337-0.392-2.852-1.016-2.852-2.869v-0.036c0-1.943,1.569-3.03,3.493-3.03
		c1.212,0,2.531,0.41,3.565,1.105l-1.034,1.871c-0.945-0.552-1.889-0.891-2.584-0.891c-0.66,0-0.998,0.285-0.998,0.659v0.036
		c0,0.535,0.909,0.784,1.943,1.141c1.337,0.446,2.887,1.087,2.887,2.834v0.036c0,2.121-1.586,3.083-3.654,3.083
		C41.199,26.706,39.702,26.26,38.437,25.262z"/>
	<path class="st0" d="M47.151,13.517h2.709v4.812c0.624-0.802,1.426-1.533,2.798-1.533c2.05,0,3.244,1.354,3.244,3.547v6.185h-2.709
		v-5.329c0-1.283-0.606-1.943-1.64-1.943c-1.034,0-1.693,0.659-1.693,1.943v5.329h-2.709V13.517z"/>
	<path class="st0" d="M56.766,21.805v-0.036c0-2.745,2.21-4.973,5.187-4.973c2.958,0,5.151,2.192,5.151,4.937v0.036
		c0,2.745-2.21,4.973-5.186,4.973C58.959,26.742,56.766,24.549,56.766,21.805z M64.43,21.805v-0.036
		c0-1.408-1.016-2.638-2.513-2.638c-1.551,0-2.477,1.194-2.477,2.602v0.036c0,1.408,1.016,2.638,2.513,2.638
		C63.504,24.406,64.43,23.212,64.43,21.805z"/>
	<path class="st0" d="M68.046,16.974h2.709v1.372c0.659-0.891,1.569-1.551,2.976-1.551c2.228,0,4.349,1.747,4.349,4.937v0.036
		c0,3.191-2.086,4.937-4.349,4.937c-1.444,0-2.335-0.659-2.976-1.426v4.099h-2.709V16.974z M75.372,21.769v-0.036
		c0-1.586-1.07-2.638-2.335-2.638s-2.317,1.051-2.317,2.638v0.036c0,1.586,1.052,2.638,2.317,2.638S75.372,23.373,75.372,21.769z"/>
	<path class="st0" d="M78.799,20.325v-0.036c0-3.547,2.674-6.452,6.505-6.452c2.353,0,3.761,0.784,4.92,1.925l-1.747,2.014
		c-0.962-0.873-1.943-1.408-3.19-1.408c-2.103,0-3.618,1.747-3.618,3.885v0.036c0,2.139,1.479,3.921,3.618,3.921
		c1.426,0,2.299-0.57,3.279-1.462l1.746,1.764c-1.283,1.372-2.709,2.228-5.115,2.228C81.526,26.742,78.799,23.907,78.799,20.325z"/>
	<path class="st0" d="M91.375,14.051h2.745v12.476h-2.745V14.051z"/>
	<path class="st0" d="M96.218,14.051h5.703c1.586,0,2.816,0.446,3.636,1.265c0.695,0.695,1.069,1.675,1.069,2.852v0.036
		c0,2.014-1.087,3.279-2.674,3.867l3.048,4.456h-3.208l-2.674-3.993h-2.157v3.993h-2.745V14.051z M101.744,20.111
		c1.337,0,2.103-0.713,2.103-1.764v-0.036c0-1.176-0.82-1.782-2.157-1.782h-2.727v3.582H101.744z"/>
	<path class="st0" d="M107.37,20.325v-0.036c0-3.547,2.674-6.452,6.505-6.452c2.353,0,3.761,0.784,4.92,1.925l-1.747,2.014
		c-0.962-0.873-1.943-1.408-3.19-1.408c-2.103,0-3.618,1.747-3.618,3.885v0.036c0,2.139,1.479,3.921,3.618,3.921
		c1.426,0,2.299-0.57,3.279-1.462l1.746,1.764c-1.283,1.372-2.709,2.228-5.115,2.228C110.097,26.742,107.37,23.907,107.37,20.325z"
		/>
	<path class="st0" d="M119.65,21.181v-7.129h2.745v7.058c0,2.032,1.016,3.083,2.692,3.083c1.675,0,2.691-1.016,2.691-2.994v-7.147
		h2.745v7.04c0,3.779-2.121,5.632-5.472,5.632C121.7,26.724,119.65,24.852,119.65,21.181z"/>
	<path class="st0" d="M132.527,14.051h2.745v12.476h-2.745V14.051z"/>
	<path class="st0" d="M139.966,16.582h-3.797v-2.531h10.338v2.531h-3.796v9.946h-2.744V16.582z"/>
</g>
<g>
	<line class="st1" x1="22.37" y1="14.354" x2="22.041" y2="13.041"/>
</g>
<g>
	<line class="st1" x1="20.931" y1="15.747" x2="19.63" y2="15.376"/>
</g>
<g>
	<line class="st1" x1="21.419" y1="17.69" x2="20.446" y2="18.631"/>
</g>
<g>
	<line class="st1" x1="24.296" y1="14.903" x2="25.268" y2="13.961"/>
</g>
<path class="st0" d="M34.916,25.23c-0.174-0.695-0.608-1.28-1.222-1.647c-0.614-0.368-1.335-0.474-2.029-0.301l-12.62,3.166
	c-0.091,0.022-0.19-0.018-0.237-0.101l-0.465-0.803l14.889-3.735c0.718-0.18,1.23-0.814,1.255-1.554l0.33-9.877
	c0.037-1.102-0.992-1.933-2.062-1.665L11.66,14.005l-1.353-2.336c-0.372-0.642-0.926-1.146-1.602-1.454L5.054,8.546
	C4.5,8.292,3.846,8.537,3.593,9.091c-0.253,0.553-0.009,1.207,0.544,1.46l3.651,1.668c0.257,0.118,0.469,0.31,0.61,0.554l8.5,14.678
	c0.538,0.929,1.641,1.396,2.682,1.133l12.619-3.165c0.167-0.042,0.297,0.016,0.36,0.053c0.063,0.038,0.175,0.126,0.217,0.293
	c0.042,0.166-0.015,0.297-0.053,0.36c-0.038,0.063-0.126,0.175-0.293,0.217l-10.308,2.585c-1.212,0.304-1.973,1.468-1.822,2.678
	c-0.496,0.568-0.717,1.359-0.519,2.145c0.32,1.276,1.613,2.05,2.889,1.73c1.276-0.32,2.05-1.613,1.73-2.889
	c-0.19-0.759-0.729-1.333-1.4-1.613l6.711-1.683c-0.459,0.563-0.663,1.323-0.473,2.082c0.32,1.276,1.613,2.05,2.889,1.73
	c1.276-0.32,2.05-1.613,1.73-2.889c-0.19-0.759-0.729-1.333-1.399-1.612l0.509-0.128c0.694-0.174,1.279-0.608,1.647-1.222
	C34.983,26.645,35.09,25.924,34.916,25.23z M28.952,20.293c0.14,0.122,0.153,0.335,0.029,0.474l-0.604,0.674
	c-0.121,0.135-0.328,0.149-0.466,0.03l-1.727-1.482l-0.796,1.919l-2.622-5.733c-0.073-0.159,0.076-0.329,0.244-0.278l6.084,1.857
	L27.21,18.77L28.952,20.293z M24.546,14.729l1.024-0.992c0.169-0.165,0.44-0.16,0.605,0.01c0.164,0.17,0.16,0.441-0.01,0.605
	l-1.024,0.992c-0.056,0.054-0.123,0.09-0.193,0.107c-0.143,0.036-0.301-0.003-0.412-0.117
	C24.372,15.165,24.376,14.894,24.546,14.729z M22.363,12.66c0.229-0.058,0.461,0.081,0.519,0.311l0.347,1.383
	c0.058,0.229-0.081,0.462-0.311,0.519c-0.229,0.058-0.462-0.081-0.519-0.311l-0.347-1.383C21.995,12.949,22.134,12.717,22.363,12.66
	z M22.119,17.675c0.164,0.17,0.16,0.441-0.01,0.605l-1.024,0.992c-0.056,0.054-0.123,0.09-0.193,0.107
	c-0.143,0.036-0.301-0.003-0.412-0.117c-0.164-0.17-0.16-0.441,0.01-0.605l1.024-0.992C21.683,17.5,21.954,17.505,22.119,17.675z
	 M19.516,15.417c0.065-0.228,0.301-0.36,0.529-0.294l1.371,0.391c0.227,0.065,0.359,0.302,0.294,0.529
	c-0.044,0.153-0.164,0.262-0.308,0.298c-0.07,0.018-0.146,0.018-0.221-0.004l-1.371-0.391
	C19.582,15.881,19.451,15.645,19.516,15.417z"/>
</svg>
